PathFileType	4	(X/Y/Z)	pose_F01_0-95.trc
DataRate	CameraRate	NumFrames	NumMarkers	Units	OrigDataRate	OrigDataStartFrame	OrigNumFrames
30	30	7	21	m	30	35	95
Frame#	Time	CHip			RHip			RKnee			RAnkle			RBigToe			RSmallToe			RHeel			LHip			LKnee			LAnkle			LBigToe			LSmallToe			LHeel			Neck			Nose			RShoulder			RElbow			RWrist			LShoulder			LElbow			LWrist			
		X1	Y1	Z1	X2	Y2	Z2	X3	Y3	Z3	X4	Y4	Z4	X5	Y5	Z5	X6	Y6	Z6	X7	Y7	Z7	X8	Y8	Z8	X9	Y9	Z9	X10	Y10	Z10	X11	Y11	Z11	X12	Y12	Z12	X13	Y13	Z13	X14	Y14	Z14	X15	Y15	Z15	X16	Y16	Z16	X17	Y17	Z17	X18	Y18	Z18	X19	Y19	Z19	X20	Y20	Z20	X21	Y21	Z21	
35	1.1666666666666667	-0.16399658419365573	1.841159547730864	-0.6378861183940626	-0.18081488814084554	1.8402306878660193	-0.5688159728906511	-0.18390694507905628	1.7158008556032291	-0.5674181520793157	-0.17756477817447058	1.5959142123222512	-0.5510800764748311	-0.20219374833652434	1.5642535069141357	-0.5258042030890933	-0.19965236118174753	1.5720125116884847	-0.5028967092931211	-0.1729608707288533	1.5860130482467463	-0.5592232732114742	-0.15123935657295434	1.842789074144106	-0.6970798948318604	-0.15723792325390892	1.7186046049405546	-0.6769371341617685	-0.15173290347410612	1.5943245055291626	-0.663598738925868	-0.17785409230204216	1.564939908330568	-0.6588782737234904	-0.16654763997841715	1.5673087968201858	-0.6869524589721007	-0.14114182826659516	1.585190771589387	-0.6524124446800027	-0.16247867948393763	1.9894490453003602	-0.6486362483769129	-0.19835920587600517	2.0298545715667227	-0.5992604970428735	-0.1826842296850056	1.983129409792097	-0.5522927581148366	-0.17884523403985655	1.9127133235830325	-0.5118578016637677	-0.2088558699783228	1.8795677292476265	-0.5308257405918152	-0.1395877518082899	1.997432946624307	-0.7448947241594435	-0.11624855734530355	1.9281114070206116	-0.8060162401946895	-0.165164938124616	1.883138940889801	-0.7243260043815595
36	1.2	-0.165925103270988	1.841344528498562	-0.6444575524003601	-0.1788397700022501	1.838216389934649	-0.5794941635576801	-0.17762487766834834	1.7146559170821971	-0.565193866076305	-0.17658880350973968	1.598693637032953	-0.5481028662261228	-0.1992415254568066	1.5647246937631898	-0.5248038657745532	-0.1987288265470975	1.5724519369452559	-0.499616753116584	-0.1729724374699343	1.5890118320885742	-0.5594294349255521	-0.15116562061688238	1.8419589410491797	-0.7054150104709072	-0.16215986946833333	1.7199416019453646	-0.6842752928787948	-0.14179262707430462	1.5965986546795983	-0.6784397138697874	-0.17159312673933996	1.5644161568848756	-0.6650762810651238	-0.16256913600129505	1.5672883202758512	-0.6910719247167907	-0.1305960876519358	1.587128560652449	-0.6758850795463943	-0.16133239266804633	1.9885082974165718	-0.6540629042301046	-0.1997967017489809	2.0234528604740327	-0.5932062804086957	-0.17955482657365474	1.9807110411389308	-0.5596872375745691	-0.1757610869104408	1.9118280678134676	-0.5196056369990101	-0.2069411014706711	1.861997754883419	-0.5127263415469785	-0.1404925576596751	1.9962944009779944	-0.7480004808443195	-0.11626294515938924	1.9293864553276456	-0.8063148675754969	-0.1621670606231051	1.8714677880597523	-0.7423562834526894
37	1.2333333333333334	-0.15974889729152528	1.8402267333980495	-0.654488863889213	-0.16899028176227954	1.8374253892803174	-0.5940191002729021	-0.1750887142129664	1.7135653901383479	-0.5766179295141554	-0.17676847461949038	1.5971439081897845	-0.5474985142972713	-0.20015765254259968	1.5649172403544522	-0.5278459395204346	-0.19938532535097261	1.5709890002847853	-0.5028804198701808	-0.17223982661587617	1.5901810015603812	-0.5557854883047415	-0.14388028296850883	1.8419857280607368	-0.7127818660625768	-0.15447131282947815	1.720433303252808	-0.6966145609928323	-0.13989531536732241	1.5903029662039505	-0.6956580778058999	-0.1758112720999828	1.5609655872174082	-0.6724123944588475	-0.16865225342080353	1.5621915814815153	-0.696060352810849	-0.12838604749496146	1.5765355001280623	-0.6926874884732976	-0.16083361658472767	1.9887688913722859	-0.6626403953059768	-0.20190972583930133	2.0195649452792104	-0.5899080350229782	-0.17730373154298446	1.980942822234154	-0.5705353563779577	-0.17385613512580605	1.9072149485736554	-0.5390608667315454	-0.20537955066837885	1.8475532199109832	-0.5037027022066959	-0.1391182566717546	1.9964410888894344	-0.7533017839169115	-0.11231382371042192	1.9272080319471396	-0.8137329598703902	-0.1483295620547522	1.8644737659890531	-0.7671140238785451
38	1.2666666666666666	-0.1504813451906924	1.838529021228999	-0.6690695020329747	-0.1667621137637855	1.8351654503333272	-0.6050975137027662	-0.1750904258821068	1.7136669708545786	-0.5850974091739398	-0.17482319091599172	1.5975372594599249	-0.5497871312159187	-0.19703481499097464	1.5640287432833708	-0.5269920446471321	-0.19629691114705092	1.572961790807081	-0.5023032353450104	-0.17311165321766128	1.590210748577061	-0.5592400250470136	-0.14104241448922186	1.8416622071889082	-0.7322443351200343	-0.14578850018873638	1.7155752992271354	-0.7173138112301725	-0.1447880340073487	1.588604234670023	-0.7154559955854657	-0.17464502725998476	1.556002663038959	-0.681872398696019	-0.1701935918079258	1.5577311464958794	-0.7151414012520788	-0.1351697608794137	1.576212511817782	-0.7188394096428442	-0.15953195312462998	1.9876361477944153	-0.6678848236489651	-0.20122833616080146	2.0143194760887515	-0.5858607562872679	-0.17611015992763351	1.978662258079351	-0.575814691546511	-0.16952981845296272	1.9051633642409624	-0.552064484346926	-0.19267618244613835	1.845330647042489	-0.504775303439345	-0.1428434025317289	1.996717613520065	-0.7571690025070881	-0.11137101879834874	1.927540742341427	-0.8223377110702111	-0.14004908911780503	1.8549839431596908	-0.7868791059899056
39	1.3	-0.1492582449079764	1.8388436598304259	-0.686857596609201	-0.15872506909667522	1.8358479719840002	-0.6264159949758937	-0.17520805106893744	1.7140168617666511	-0.5935862831645564	-0.1672191843186096	1.5979502154713678	-0.5623238155078668	-0.19582254582331812	1.5635825199341582	-0.5324995871793448	-0.19314768341660304	1.5709323799074602	-0.5096120365033748	-0.16014342926093192	1.5892654558289891	-0.5732579558405423	-0.13419848867035605	1.8420438355433226	-0.7513413620937917	-0.14435990186796155	1.7159482125955956	-0.7231055571958713	-0.14264822932231463	1.5860981675129713	-0.7173301431936551	-0.1745808213285938	1.5557943798873743	-0.6818974112593329	-0.1671517740138885	1.5580307752714446	-0.7143429628176082	-0.13490470522028566	1.5746873540909052	-0.7190488770287246	-0.16111346085398334	1.9863926897026565	-0.6738064363344524	-0.203638088751869	2.0089839744535634	-0.5744679811893296	-0.17436593297930367	1.977465825584548	-0.5889844734138056	-0.15853083618713887	1.9059968522974964	-0.5724639654079816	-0.18310432531054635	1.8420536588370482	-0.5277194258921031	-0.14666435509113865	1.9952871250153354	-0.7606968007115047	-0.11194578137659211	1.9265928158991603	-0.8368398686933782	-0.1288681565817577	1.8502538985452486	-0.813062738660552
40	1.3333333333333333	-0.1451680272460771	1.8394010443923385	-0.7034586412498383	-0.16006585166186718	1.8348975163289953	-0.6416404639113777	-0.17017884537313932	1.714333891908334	-0.6076784986187205	-0.15688417531318716	1.598844834857152	-0.5901761517268338	-0.189954661459908	1.566054839778698	-0.5560839156549904	-0.1840573130482878	1.5718834184506747	-0.532471056881483	-0.14956920826911294	1.5901641967371425	-0.600918407598987	-0.1320882185802743	1.841160570818202	-0.7654449778815404	-0.14581414017899613	1.7146865402052738	-0.7296009256925073	-0.14245065840421145	1.5878246345046014	-0.7180902802113754	-0.17456179905672214	1.5555481725112061	-0.6819295461084628	-0.17016978597109955	1.5577866245625434	-0.7152336335011872	-0.1352430829235163	1.5765426955280037	-0.7191307544068639	-0.16000574328411318	1.983019966958454	-0.6787743938023933	-0.20186131399133275	2.0027417374484986	-0.5757541089430988	-0.1691642116425933	1.9726412138490468	-0.5982645850958681	-0.15261250227962084	1.9002434287875893	-0.5993025183071088	-0.17683597824689765	1.8373661919668332	-0.5428597451360562	-0.14975102280424354	1.9952502157426593	-0.761399333350791	-0.11344780393114375	1.9256031557354913	-0.8426896735811121	-0.12239775449177018	1.8510167543850544	-0.8350601798527714
41	1.3666666666666667	-0.1466488603219216	1.840758191073082	-0.7101270978823336	-0.16037194676948027	1.8364824681005507	-0.6537707181121862	-0.16611502010097204	1.7162593239281643	-0.6335016111783416	-0.15648964380004718	1.596447773518983	-0.629277750106603	-0.1888573875154506	1.5625603714630847	-0.5788101558462783	-0.18565174230847709	1.5693168832135687	-0.5611546429256763	-0.1531208366245169	1.5875873015479454	-0.6443282083132936	-0.13413476985315076	1.8438904951499195	-0.7751932992093453	-0.14596148518720045	1.7175726863217462	-0.7418454623492813	-0.14120919053157624	1.5866748498240333	-0.7229873404769093	-0.17515368463327807	1.55639639837283	-0.6810731078378965	-0.16532770394957846	1.557729400836365	-0.7160082719981414	-0.13298650977428866	1.5762424219973836	-0.7216581774544006	-0.1608351391657597	1.9831156989981802	-0.6818768478089005	-0.20295835082232605	2.001164853683497	-0.569990512617527	-0.17006701074081973	1.9716433343165802	-0.601506650091436	-0.15103257073551515	1.900850083939387	-0.6136814206497223	-0.17416584485142883	1.8379430836753958	-0.5629831684454469	-0.1520821031838467	1.9942203819994486	-0.7591795938988406	-0.1172785461364769	1.9270019177052256	-0.846580439598277	-0.1226136178825355	1.844654912614491	-0.845977036845519
